<svg width="36" height="36" viewBox="0 0 36 36" fill="none" xmlns="http://www.w3.org/2000/svg">
<path d="M18.0029 0C20.547 0 21.3464 1.75717 22.0172 3.51159C22.2989 4.2566 28.9103 21.6906 29.109 22.2139C29.162 22.3599 29.1262 22.5995 28.8931 22.6863C28.6586 22.7716 25.2235 24.0578 25.0332 24.1267C24.843 24.1969 24.63 24.095 24.5613 23.9119C24.4898 23.7315 23.064 19.9307 22.9038 19.5065H13.1048C12.9503 19.9307 11.5073 23.7397 11.443 23.9119C11.3772 24.0868 11.1727 24.2052 10.9696 24.1267C10.7665 24.0496 7.31856 22.7634 7.11262 22.6863C6.91527 22.6119 6.82517 22.3957 6.89381 22.2139C7.13693 21.5612 13.6482 4.4067 13.98 3.51159C14.6264 1.78334 15.453 0 18.0029 0ZM6.3704 31.1953C6.16446 31.1953 6 31.3606 6 31.5616V35.6364C6 35.8375 6.16446 36 6.3704 36H29.6253C29.8355 36 30 35.8375 30 35.6364V31.5616C30 31.3606 29.8355 31.1953 29.6253 31.1953H6.3704ZM17.98 5.69291L14.6679 15.2706H21.3464L18.0229 5.69291H17.98Z" fill="#EE2A23"/>
</svg>
