<svg width="36" height="36" viewBox="0 0 36 36" fill="none" xmlns="http://www.w3.org/2000/svg">
<path d="M35.4612 22.357C33.0568 32.001 23.2891 37.8702 13.644 35.4652C4.00287 33.0609 -1.86631 23.2926 0.539192 13.6492C2.94245 4.00407 12.7102 -1.86568 22.3525 0.538705C31.997 2.94309 37.8656 12.7125 35.4612 22.357Z" fill="#F7931A"/>
<path d="M25.9371 15.4375C26.2954 13.0422 24.4716 11.7545 21.9778 10.8954L22.7867 7.65059L20.8116 7.15835L20.024 10.3177C19.5048 10.1883 18.9715 10.0662 18.4415 9.94527L19.2347 6.76512L17.2607 6.27288L16.4512 9.5166C16.0214 9.41872 15.5995 9.32196 15.1899 9.22013L15.1922 9.21001L12.4683 8.52987L11.9428 10.6395C11.9428 10.6395 13.4083 10.9753 13.3774 10.9961C14.1773 11.1958 14.3219 11.7252 14.2977 12.1449L13.3762 15.8415C13.4314 15.8555 13.5028 15.8758 13.5816 15.9073C13.5158 15.891 13.4454 15.873 13.3729 15.8555L12.0812 21.0339C11.9833 21.2769 11.7353 21.6415 11.1761 21.5031C11.1958 21.5318 9.74042 21.1447 9.74042 21.1447L8.75988 23.4056L11.3302 24.0464C11.8084 24.1662 12.277 24.2917 12.7383 24.4098L11.9209 27.6918L13.8938 28.184L14.7033 24.9369C15.2423 25.0832 15.7654 25.2182 16.2774 25.3454L15.4707 28.5773L17.4458 29.0695L18.2632 25.7937C21.6312 26.4311 24.1639 26.174 25.2299 23.1277C26.089 20.675 25.1872 19.2601 23.4151 18.3375C24.7056 18.0399 25.6777 17.191 25.9371 15.4375ZM21.4242 21.7658C20.8138 24.2185 16.6841 22.8926 15.3452 22.5601L16.4298 18.2121C17.7687 18.5463 22.0622 19.2078 21.4242 21.7658ZM22.0352 15.4021C21.4782 17.6332 18.041 16.4997 16.926 16.2218L17.9094 12.2782C19.0243 12.5561 22.6152 13.0748 22.0352 15.4021Z" fill="white"/>
</svg>
