<svg width="36" height="36" viewBox="0 0 36 36" fill="none" xmlns="http://www.w3.org/2000/svg">
<g clip-path="url(#clip0_196_28)">
<path d="M30.6 0H5.4C2.41766 0 0 2.41766 0 5.4V30.6C0 33.5823 2.41766 36 5.4 36H30.6C33.5823 36 36 33.5823 36 30.6V5.4C36 2.41766 33.5823 0 30.6 0Z" fill="black"/>
<path d="M18 25.4531V32.9766L27.2109 19.9688L18 25.4531Z" fill="#959595"/>
<path d="M18 2.88281L27.2109 18.2109L18 23.6953L8.71875 18.2109" fill="#959595"/>
<path d="M18 2.88281V13.9922L8.71875 18.2109M8.71875 19.9688L18 25.4531V32.9766" fill="white"/>
<path d="M18 13.9922V23.6953L27.2109 18.2109" fill="#5A5A5A"/>
<path d="M8.71875 18.2109L18 13.9922V23.6953" fill="#959595"/>
</g>
<defs>
<clipPath id="clip0_196_28">
<rect width="36" height="36" fill="white"/>
</clipPath>
</defs>
</svg>
