<svg width="36" height="36" viewBox="0 0 36 36" fill="none" xmlns="http://www.w3.org/2000/svg">
<rect width="36" height="36" rx="18" fill="white"/>
<path fill-rule="evenodd" clip-rule="evenodd" d="M5.95292 13.1986C10.4296 10.2593 15.3604 8.52837 23.7299 9.99802C24.184 9.73675 24.4436 9.47548 24.5733 8.92028C22.4972 8.16913 20.2264 7.90786 17.3068 7.94052C14.6792 8.00584 9.943 8.9856 7.4127 10.4879L8.19126 9.50814C9.97544 8.46306 14.5819 7.09139 18.0205 6.99342C20.4535 6.96076 21.7186 7.09139 24.6058 7.8752C24.3462 7.38532 23.7623 7.12405 22.8865 6.73215C20.0966 5.45846 14.8414 5.36048 10.5594 7.25469C11.1108 6.89544 11.6299 6.56885 12.3435 6.24227C13.7709 5.58909 16.0741 4.96858 18.9612 5.00123C21.2645 5.03389 24.0218 5.85036 25.7087 7.51596C26.0007 7.84254 26.1629 8.20179 26.2277 8.49572C27.5578 9.18155 28.3363 9.80206 28.758 10.5532C28.9202 10.9451 29.0176 11.3697 28.9202 11.8269C29.4717 12.1535 29.7312 12.4474 30.0232 12.8067C30.2178 13.1006 30.38 13.4598 30.4125 13.7864C30.4774 14.211 30.5098 14.6682 30.0881 15.2234C30.5422 15.452 30.8991 16.0725 30.9639 16.3665C31.1586 17.3789 30.5422 18.3586 29.6664 19.1425C28.6932 20.0242 26.5197 21.0367 24.768 21.4939C21.2645 22.3757 18.1827 22.7676 15.7173 23.2248C16.8202 23.4861 18.3125 23.8453 20.7779 23.8453C26.0007 23.8453 30.6071 21.3632 30.6071 21.3632C30.6071 21.3632 30.5098 21.6898 30.4125 21.9838C27.1036 24.0086 21.8159 24.8577 19.5776 24.7598C17.2744 24.6618 15.3604 24.3025 13.4789 23.7147C12.895 23.878 12.3435 24.0413 11.7921 24.3025C14.6468 25.6089 16.8202 25.9028 19.2856 26.0988C21.7835 26.2947 25.9033 25.6742 29.4068 24.4005C29.2446 24.5638 29.1798 24.8251 29.0176 24.9557C27.2334 25.9028 23.4379 26.8499 21.5564 26.9152C19.6749 26.9805 17.3717 26.9152 15.3604 26.556C13.6411 26.2294 12.2138 25.6742 10.754 25.021C10.4945 25.217 10.3647 25.4782 10.2998 25.7722C15.9119 28.7768 21.2969 28.8421 27.428 26.9152L26.8765 27.4704C20.1291 30.2138 14.8738 29.136 10.7864 27.1765C10.6567 27.1112 10.4945 27.0459 10.3647 26.9805C10.754 27.6337 13.8682 29.9198 17.3393 30.2138C19.7398 30.4097 22.6594 29.9851 24.4111 29.2993L23.3731 29.8219C22.5296 30.2464 20.2913 31.1935 17.1771 30.9649C13.0248 30.671 10.6891 28.8421 9.61861 27.8623C9.13201 27.4051 8.90493 26.8826 8.74273 26.2294C7.80198 25.7395 7.21807 25.217 6.73147 24.4658C6.43951 24.0086 6.50439 23.5187 6.56927 23.0942L6.66659 22.7023C6.21244 22.3757 5.75828 22.0164 5.56364 21.6572C5.14192 20.906 5.40144 20.2855 5.6934 19.763C5.43388 19.469 5.2068 19.2078 5.10948 18.9138C5.01216 18.5546 4.97973 18.228 5.01216 17.8688C5.07704 17.2483 5.43388 16.6604 5.8556 16.1705C6.76391 15.1254 8.19126 14.309 10.6567 13.4925C13.0572 12.7087 13.998 12.5781 15.8146 12.1535C17.9232 11.6636 20.4535 11.5003 22.5621 10.7492C16.6905 9.70409 10.5594 10.6512 5.59608 14.113L5.95292 13.1986ZM25.9682 9.54079C25.9033 9.83472 25.579 10.1613 25.3843 10.3899C26.0331 10.5532 26.6819 10.7818 27.2983 11.0431C27.2009 10.4552 26.5521 9.90004 25.9682 9.54079ZM7.86686 21.3632C7.47758 21.1346 7.21807 21.004 6.92611 20.7754C6.76391 21.1346 7.08831 21.5592 7.4127 21.7552C7.54246 21.6245 7.70466 21.4939 7.86686 21.3632ZM27.6875 13.6231C28.1093 13.8191 28.4985 13.9824 28.8554 14.2436C29.1149 13.7211 28.9527 13.3945 28.4012 12.9373C28.2066 13.1986 27.9471 13.4272 27.6875 13.6231ZM26.4224 14.4069C25.579 14.7988 24.3138 15.2234 22.5621 15.6806C21.1347 16.0399 17.5988 16.5624 13.8033 17.3789C12.6031 17.6402 9.35909 18.424 7.76954 19.763C8.2237 20.1222 8.48322 20.2202 9.00225 20.4815C9.65105 20.0569 10.5594 19.665 11.8894 19.3057C14.225 18.6852 15.9444 18.424 18.0529 18.0647C20.1291 17.7381 24.0218 16.9217 26.1953 16.1379C26.909 15.8766 27.5578 15.55 28.0444 15.1581C27.8822 15.0275 26.4873 14.3416 26.4224 14.4069ZM10.0728 23.5187C10.3972 23.3228 10.7864 23.1268 11.2082 22.9635C10.5918 22.7023 9.97544 22.441 9.35909 22.1471C9.06713 22.3104 8.80761 22.5063 8.61298 22.7023C9.09957 22.9635 9.55373 23.2575 10.0728 23.5187ZM8.0615 23.7147C8.0615 24.1066 8.28858 24.4658 8.80761 24.8904C8.87249 24.6618 8.96981 24.5311 9.13201 24.3352C8.74273 24.1392 8.41834 23.9106 8.0615 23.7147ZM11.0135 16.4644C15.2631 15.2234 19.7398 14.8315 24.2814 13.6231C22.4972 13.1333 21.5564 12.9373 19.6749 13.1659C16.95 13.4925 13.9655 14.0804 11.4028 14.8315C10.3972 15.1254 5.10948 16.6277 6.63415 18.7506C6.63415 18.7832 7.54246 17.5095 11.0135 16.4644ZM26.9739 12.0882C26.2926 11.7616 25.4168 11.4677 24.476 11.2064C24.0543 11.533 23.6001 11.8269 22.8865 12.0882C24.0218 12.2841 24.8977 12.6107 25.8709 12.9046C26.0655 13.0026 26.8441 12.2515 26.9739 12.0882ZM29.0824 16.2032C28.9527 16.3011 28.8229 16.4318 28.6607 16.5298C27.6875 17.2809 26.1629 17.8688 24.0543 18.4566C19.6749 19.6323 16.4958 19.8283 12.8626 20.7101C12.1489 20.8734 11.4352 21.1346 10.754 21.3959C11.4352 21.7552 12.1489 22.0491 12.895 22.343C14.3548 21.9184 15.0685 21.7225 17.2095 21.3632C18.0205 21.2326 20.5184 20.7754 22.335 20.3835C25.579 19.7303 30.3476 18.1954 29.0824 16.2032Z" fill="#00487C"/>
</svg>
