<svg width="36" height="36" viewBox="0 0 36 36" fill="none" xmlns="http://www.w3.org/2000/svg">
<rect width="36" height="36" rx="6" fill="#DD0A34"/>
<path d="M7.79283 27.3358H7.20717L4.2638 22H2V31H4.03749V26.2944H4.70336L6.70104 30.126H8.29896L10.2966 26.2944H10.9625V31H13V22H10.7362L7.79283 27.3358Z" fill="white"/>
<path fill-rule="evenodd" clip-rule="evenodd" d="M30.8259 25.4072H27.1447V23.9287H33.371V22H25V31H30.8259C32.9021 31 34 29.8816 34 28.1973C34 26.5129 32.7684 25.4072 30.8259 25.4072ZM30.6522 29.135H27.1447V27.2716H30.6542C31.4573 27.2716 31.8321 27.5286 31.8321 28.1973C31.8321 28.866 31.4558 29.1361 30.6522 29.1361V29.135Z" fill="white"/>
<path d="M21.39 22H23.8968L19.8146 26.354L24 31H21.4026L18.1881 27.4001H17.0571V31H15V22H17.0571V25.4714H18.1881L21.39 22Z" fill="white"/>
<path d="M13.2857 11L20.6703 4L33 4.02122L28.5824 8.66659H22.5165L13.2857 18L3 7.62961L6.69231 4H13.4138L9.85716 7.62961L13.2857 11Z" fill="white"/>
<path d="M22.9715 10H33L28.3714 14.3871H25.0285L21.4286 18H15L22.9715 10Z" fill="white"/>
</svg>
