<svg width="36" height="36" viewBox="0 0 36 36" fill="none" xmlns="http://www.w3.org/2000/svg">
<rect width="36" height="36" rx="6" fill="white"/>
<path d="M17.7131 3.01135L10 4.01053V6.7278V9.44507L10.5118 9.37196C10.8042 9.3354 14.1917 9.00641 18.0421 8.64085C21.8926 8.2753 25.3044 7.94631 25.6334 7.89757L26.2061 7.82445V4.91222V1.99999L25.8162 2.01218C25.5969 2.02436 21.9414 2.47521 17.7131 3.01135Z" fill="#E4003A"/>
<path d="M19.1875 12.2355C17.8106 12.4426 16.3972 13.064 15.3371 13.9657L14.7522 14.441V13.5271V12.601H12.3761H10V23.1411V33.6812H12.3761H14.7522V30.0866V26.492L15.5076 27.0525C17.0186 28.1613 18.359 28.6122 20.1136 28.6122C24.5977 28.6122 26.8154 25.8949 26.8154 20.3994C26.8154 16.4393 25.6822 13.9535 23.4036 12.8813C22.2216 12.3207 20.4426 12.0527 19.1875 12.2355ZM20.0283 16.5124C20.7229 16.6952 21.4174 17.3897 21.6246 18.0965C21.8926 18.986 21.9901 20.5822 21.8317 21.6545C21.5271 23.8478 20.6132 24.5058 18.0178 24.3961C16.6165 24.3352 16.0072 24.1159 15.4467 23.4457C14.935 22.8486 14.8131 22.215 14.8131 20.2776C14.8131 18.5839 14.8253 18.4864 15.1543 17.804C15.5686 16.9633 16.19 16.549 17.2623 16.3906C18.0421 16.2687 19.2972 16.3296 20.0283 16.5124Z" fill="#00274F"/>
</svg>
