<svg width="36" height="36" viewBox="0 0 36 36" fill="none" xmlns="http://www.w3.org/2000/svg">
<g clip-path="url(#clip0_196_172)">
<path d="M30.6 0H5.4C2.41766 0 0 2.41766 0 5.4V30.6C0 33.5823 2.41766 36 5.4 36H30.6C33.5823 36 36 33.5823 36 30.6V5.4C36 2.41766 33.5823 0 30.6 0Z" fill="#575757"/>
<path d="M12.0625 6.0625H19.6562C23.8223 6.0625 27.25 9.49023 27.25 13.6562C27.25 17.875 23.8223 21.25 19.6562 21.25H13.75V22.9375H22.1875C23.084 22.9375 23.875 23.7285 23.875 24.625C23.875 25.5742 23.084 26.3125 22.1875 26.3125H13.75V28C13.75 28.9492 12.959 29.6875 12.0625 29.6875C11.1133 29.6875 10.375 28.9492 10.375 28V26.3125H8.6875C7.73828 26.3125 7 25.5742 7 24.625C7 23.7285 7.73828 22.9375 8.6875 22.9375H10.375V21.25H8.6875C7.73828 21.25 7 20.5117 7 19.5625C7 18.666 7.73828 17.875 8.6875 17.875H10.375V7.75C10.375 6.85352 11.1133 6.0625 12.0625 6.0625ZM19.6562 17.875C21.9766 17.875 23.875 16.0293 23.875 13.6562C23.875 11.3359 21.9766 9.4375 19.6562 9.4375H13.75V17.875H19.6562Z" fill="white"/>
</g>
<defs>
<clipPath id="clip0_196_172">
<rect width="36" height="36" fill="white"/>
</clipPath>
</defs>
</svg>
