<svg width="36" height="36" viewBox="0 0 36 36" fill="none" xmlns="http://www.w3.org/2000/svg">
<rect width="36" height="36" rx="6" fill="white"/>
<path d="M3 18.0191C3 25.7353 9.43979 32 17.411 32C17.6073 32 17.8037 32 18 32V26.6903H17.411C12.4634 26.6903 8.49738 22.794 8.49738 18.0191C8.49738 13.2442 12.5026 9.34789 17.411 9.34789H18V4C17.8037 4 17.6073 4 17.411 4C9.43979 4 3 10.2647 3 18.0191Z" fill="#DA5155"/>
<path d="M20.4991 4V11.4278H17.6336C13.9439 11.4278 11 14.3444 11 18C11 21.6167 13.9832 24.5722 17.6336 24.5722H20.4991V32C27.0542 30.6778 32 24.9222 32 18.0389C32 11.0778 27.0542 5.32222 20.4991 4Z" fill="#213A8B"/>
</svg>
