<svg width="36" height="36" viewBox="0 0 36 36" fill="none" xmlns="http://www.w3.org/2000/svg">
<path d="M0 1H36V17.9811C36 22.6547 33.5239 26.9736 29.5046 29.3106L18.0001 36L6.49547 29.3106C2.47602 26.9736 4.12606e-06 22.6547 4.12606e-06 17.9811L0 1Z" fill="#FFDD2D"/>
<path fill-rule="evenodd" clip-rule="evenodd" d="M10 10V15.6294C10.7586 14.7601 12.138 14.1719 13.7152 14.1719H15.429V20.716C15.429 22.457 14.9628 24.1618 14.2711 25H21.7263C21.0361 24.1609 20.571 22.4582 20.571 20.7193V14.1719H22.2849C23.862 14.1719 25.2414 14.7601 26 15.6294V10H10Z" fill="#333333"/>
</svg>
