<svg width="36" height="36" viewBox="0 0 36 36" fill="none" xmlns="http://www.w3.org/2000/svg">
<path d="M18 36C27.9411 36 36 27.9411 36 18C36 8.05887 27.9411 0 18 0C8.05887 0 0 8.05887 0 18C0 27.9411 8.05887 36 18 36Z" fill="#0088CC"/>
<path fill-rule="evenodd" clip-rule="evenodd" d="M10.6105 9H25.4842C26.0526 9 26.5263 9.09474 27.0947 9.37895C27.7579 9.66316 28.1368 10.1368 28.3263 10.5158C28.3263 10.5158 28.3263 10.6105 28.4211 10.6105C28.7053 11.0842 28.8947 11.6526 28.8947 12.3158C28.8947 12.8842 28.8 13.4526 28.4211 14.0211L19.0421 30.1263C18.8526 30.5053 18.4737 30.6947 18 30.6947C17.6211 30.6947 17.2421 30.5053 16.9579 30.1263L7.76842 14.0211C7.57895 13.6421 7.2 13.1684 7.2 12.4105C7.10526 11.7474 7.29474 11.1789 7.57895 10.6105C7.86316 10.0421 8.33684 9.56842 9 9.37895C9.56842 9 10.2316 9 10.6105 9ZM16.8632 11.2737H10.6105C10.2316 11.2737 10.0421 11.2737 9.94737 11.3684C9.7579 11.4632 9.66316 11.5579 9.56842 11.7474C9.47369 11.8421 9.47369 12.0316 9.47369 12.2211C9.47369 12.3158 9.56842 12.4105 9.7579 12.7895L16.8632 25.1053V11.2737ZM19.1368 11.2737V25.2L26.3368 12.7895C26.4316 12.6 26.4316 12.4105 26.4316 12.2211C26.4316 12.0316 26.4316 11.8421 26.3368 11.7474C26.2421 11.6526 26.2421 11.5579 26.1474 11.5579L26.0526 11.4632C25.8632 11.3684 25.6737 11.3684 25.3895 11.3684H19.1368V11.2737Z" fill="white"/>
</svg>
