<svg width="36" height="36" viewBox="0 0 36 36" fill="none" xmlns="http://www.w3.org/2000/svg">
<g clip-path="url(#clip0_196_164)">
<path d="M30.6 0H5.4C2.41766 0 0 2.41766 0 5.4V30.6C0 33.5823 2.41766 36 5.4 36H30.6C33.5823 36 36 33.5823 36 30.6V5.4C36 2.41766 33.5823 0 30.6 0Z" fill="#575757"/>
<path d="M18.4375 4.375C19.334 4.375 20.125 5.16602 20.125 6.0625V7.96094C20.1777 7.96094 20.2832 8.01367 20.3359 8.01367C20.3887 8.01367 20.3887 8.01367 20.3887 8.01367L22.9199 8.48828C23.8691 8.64648 24.4492 9.54297 24.291 10.4395C24.1328 11.3359 23.2363 11.9688 22.3398 11.8105L19.8086 11.3359C18.1738 11.0723 16.6973 11.2832 15.6953 11.6523C14.6934 12.0742 14.2715 12.6543 14.166 13.1289C14.0605 13.709 14.166 14.0254 14.2188 14.2363C14.3242 14.4473 14.5352 14.6582 14.9043 14.9219C15.748 15.502 17.0664 15.8711 18.8066 16.293L18.9648 16.3457C20.4414 16.7676 22.2871 17.2422 23.6582 18.1387C24.3965 18.6133 25.1348 19.2988 25.5566 20.1953C26.0312 21.1445 26.084 22.1992 25.9258 23.3594C25.5566 25.3633 24.1328 26.6816 22.4453 27.3672C21.707 27.6836 20.916 27.8418 20.125 27.9473V29.6875C20.125 30.6367 19.334 31.375 18.4375 31.375C17.4883 31.375 16.75 30.6367 16.75 29.6875V27.8945C16.6973 27.8418 16.6973 27.8418 16.6445 27.8418C15.3789 27.6836 13.2695 27.1035 11.8457 26.4707C10.9492 26.1016 10.5801 25.0996 10.9492 24.2559C11.3711 23.4121 12.3203 22.9902 13.2168 23.4121C14.2715 23.8867 16.1172 24.3613 17.1719 24.5195C18.8594 24.7832 20.2305 24.625 21.1797 24.2559C22.0762 23.8867 22.4453 23.3594 22.6035 22.7266C22.6562 22.1465 22.6035 21.8301 22.498 21.6719C22.3926 21.4609 22.2344 21.1973 21.8125 20.9336C20.9688 20.4062 19.6504 20.0371 17.9102 19.5625L17.752 19.5098C16.2754 19.1406 14.4297 18.6133 13.0586 17.7168C12.3203 17.2422 11.582 16.5566 11.1602 15.6602C10.7383 14.7109 10.6328 13.6562 10.8438 12.5488C11.2129 10.4922 12.7422 9.22656 14.4297 8.54102C15.168 8.22461 15.9062 8.06641 16.75 7.96094V6.0625C16.75 5.16602 17.4883 4.375 18.4375 4.375Z" fill="white"/>
</g>
<defs>
<clipPath id="clip0_196_164">
<rect width="36" height="36" fill="white"/>
</clipPath>
</defs>
</svg>
