<svg width="36" height="32" viewBox="0 0 36 32" fill="none" xmlns="http://www.w3.org/2000/svg">
<g clip-path="url(#clip0_196_35)">
<path fill-rule="evenodd" clip-rule="evenodd" d="M6.59164 0.153793L0.0275738 13.9416C0.00259565 13.9929 -0.00531977 14.0508 0.0049851 14.1069C0.01529 14.163 0.0432745 14.2144 0.0848463 14.2534L17.8128 31.2411C17.8632 31.2894 17.9302 31.3163 18 31.3163C18.0698 31.3163 18.1368 31.2894 18.1872 31.2411L35.9152 14.2545C35.9567 14.2154 35.9847 14.1641 35.995 14.108C36.0053 14.0519 35.9974 13.994 35.9724 13.9427L29.4084 0.154853C29.3872 0.108548 29.3531 0.0693213 29.3102 0.0418617C29.2673 0.0144022 29.2175 -0.000128848 29.1665 5.26637e-06H6.83558C6.78441 -0.000631267 6.73416 0.0135498 6.69087 0.0408376C6.64759 0.0681255 6.61312 0.107355 6.59164 0.153793Z" fill="#50AF95"/>
<path fill-rule="evenodd" clip-rule="evenodd" d="M20.2776 15.3575C20.1504 15.3671 19.4928 15.4063 18.026 15.4063C16.8593 15.4063 16.031 15.3713 15.7404 15.3575C11.2318 15.1592 7.86648 14.3743 7.86648 13.4346C7.86648 12.4949 11.2318 11.7112 15.7404 11.5096V14.5758C16.0352 14.5971 16.8795 14.6469 18.0461 14.6469C19.4461 14.6469 20.1472 14.5886 20.2734 14.5769V11.5118C24.7725 11.7122 28.1303 12.4971 28.1303 13.4346C28.1303 14.3722 24.7735 15.1571 20.2734 15.3565L20.2776 15.3575ZM20.2776 11.1947V8.45087H26.5564V4.2668H9.46163V8.45087H15.7393V11.1936C10.6368 11.428 6.79952 12.4387 6.79952 13.6499C6.79952 14.8611 10.6368 15.8708 15.7393 16.1063V24.8987H20.2766V16.1031C25.3675 15.8687 29.1984 14.859 29.1984 13.6489C29.1984 12.4387 25.3707 11.429 20.2766 11.1936L20.2776 11.1947Z" fill="white"/>
</g>
<defs>
<clipPath id="clip0_196_35">
<rect width="36" height="31.3164" fill="white"/>
</clipPath>
</defs>
</svg>
